# xmcd CD database file
#
# Track frame offsets:
#	150
#	11574
#	23732
#	36496
#	46887
#	60295
#	73128
#	85913
#	97095
#	108344
#	120998
#	133765
#	145580
#	157588
#	169324
#	183188
#	192237
#	202823
#
# Disc length: 2864 seconds
#
# Revision: 0
# Processed by: cddbd v1.5.2PL0 Copyright (c) Steve Scherf et al.
# Submitted via: CDex 1.70beta2
#
DISCID=e70b2e12
DTITLE=Ray Charles - The Genius At His Best CD01
DYEAR=1900
DGENRE=Blues
TTITLE0=Confessin Blues
TTITLE1=I Love You, I Love You (I Will Never Let You Go)
TTITLE2=Don't Put All Your Dreams In One Basket
TTITLE3=Ain't That Fine
TTITLE4=Alone In The City
TTITLE5=Can Anyone Ask For More
TTITLE6=You'll Never Miss The Water (Until The Well Runs Dry)
TTITLE7=A Sentimental Blues 
TTITLE8=Here I Am
TTITLE9=Rockin' Chair Blues
TTITLE10=Blues Before Sunrise
TTITLE11=How Long Blues
TTITLE12=Can't You See, Darling
TTITLE13=If I Give You My Love
TTITLE14=This Love Of Mine
TTITLE15=All To Myself
TTITLE16=I Wonder Who's Kissing Her Now
TTITLE17=Sitting On Top Of The World
EXTD=
EXTT0=
EXTT1=
EXTT2=
EXTT3=
EXTT4=
EXTT5=
EXTT6=
EXTT7=
EXTT8=
EXTT9=
EXTT10=
EXTT11=
EXTT12=
EXTT13=
EXTT14=
EXTT15=
EXTT16=
EXTT17=
PLAYORDER=
